<?xml version="1.0" encoding="UTF-8"?>
<svg width="38px" height="29px" viewBox="0 0 38 29" version="1.1" xmlns="http://www.w3.org/2000/svg" xmlns:xlink="http://www.w3.org/1999/xlink">
    <!-- Generator: Sketch 53.2 (72643) - https://sketchapp.com -->
    <title>Case-Cat Copy</title>
    <desc>Created with Sketch.</desc>
    <g id="Page-1" stroke="none" stroke-width="1" fill="none" fill-rule="evenodd">
        <g id="Icon-Sprint3-6-Copy" transform="translate(-330.000000, -276.000000)" fill="#111111" fill-rule="nonzero">
            <g id="Case-Cat-Copy" transform="translate(330.000000, 276.000000)">
                <g id="folder-tree">
                    <path d="M1.734375,0.72265625 C1.734375,0.323544224 1.41083078,-5.66830654e-14 1.01171875,-5.66830654e-14 L0.72265625,-5.66830654e-14 C0.323544224,-5.66830654e-14 0,0.323544224 0,0.72265625 L0,21.6640625 C0,22.4622866 0.647088448,23.109375 1.4453125,23.109375 L19.078125,23.109375 L19.078125,21.375 L1.734375,21.375 L1.734375,0.72265625 Z" id="Shape"></path>
                </g>
                <g id="folder-open" transform="translate(19.000000, 15.000000)">
                    <path d="M16.9171563,4.7962963 L14.8632479,4.7962963 L14.8632479,3.68945869 C14.8632479,2.81617699 14.629692,2.10826211 13.7564103,2.10826211 L8.48575499,2.10826211 L6.37749288,0 L1.10683761,0 C0.233555912,0 0,0.233555912 0,1.10683761 L0,12.036859 C0,12.9101407 0.233555912,13.1436966 1.10683761,13.1436966 L13.7912295,13.1436966 C14.7158342,13.1436966 15.5745228,12.6583681 16.05099,11.864245 L18.025641,7.11538462 C18.6558467,6.06507479 18.1470308,4.7962963 16.9171563,4.7962963 Z M1.62297426,1.20258986 L6.15813242,1.17413533 L8.26639453,3.28239744 L13.5483642,3.28239744 C13.8394691,3.28239744 13.9190171,3.43776777 13.9190171,3.72887265 L13.8967899,4.51667842 L5.203125,4.51667842 C4.2785203,4.51667842 3.41983173,5.00200695 2.94336449,5.79612999 L1.31976097,9.33693063 L1.31976097,1.71107523 C1.31976097,1.41997035 1.33186938,1.20258986 1.62297426,1.20258986 Z M14.8417588,11.3823707 C14.5560164,11.858641 14.3301611,11.9837524 13.7747494,11.983739 L1.34672784,11.9718032 L3.98632595,6.47356124 C4.38120418,5.74492027 4.95909829,5.70057983 5.51451654,5.70058517 L16.166414,5.72055143 C16.5761086,5.72055143 17.2436202,5.72776997 16.9054052,6.69970987 L14.8417588,11.3823707 Z" id="Shape"></path>
                </g>
            </g>
        </g>
    </g>
</svg>