<?xml version="1.0" encoding="UTF-8"?>
<svg width="40px" height="29px" viewBox="0 0 40 29" version="1.1" xmlns="http://www.w3.org/2000/svg" xmlns:xlink="http://www.w3.org/1999/xlink">
    <!-- Generator: Sketch 53.2 (72643) - https://sketchapp.com -->
    <title>folder-open@2x</title>
    <desc>Created with Sketch.</desc>
    <g id="Page-1" stroke="none" stroke-width="1" fill="none" fill-rule="evenodd">
        <g id="Icon-v3" transform="translate(-458.000000, -260.000000)" fill="#111111" fill-rule="nonzero">
            <g id="folder-open" transform="translate(458.000000, 260.000000)">
                <path d="M36.5776353,10.3703704 L32.1367521,10.3703704 L32.1367521,7.97720798 C32.1367521,6.08903134 31.6317664,4.55840456 29.7435897,4.55840456 L18.3475783,4.55840456 L13.7891738,0 L2.39316239,0 C0.504985755,0 0,0.504985755 0,2.39316239 L0,26.025641 C0,27.9138177 0.504985755,28.4188034 2.39316239,28.4188034 L29.8188746,28.4188034 C31.8180199,28.4188034 33.6746439,27.3694444 34.7048433,25.6524217 L38.974359,15.3846154 C40.3369658,13.1136752 39.2368234,10.3703704 36.5776353,10.3703704 Z M2.79824126,1.58353412 L12.8450855,1.58353412 L17.40349,6.14193868 L29.7435897,6.14193868 C30.3730057,6.14193868 30.8831909,6.65212387 30.8831909,7.28153982 L30.8831909,10.3703704 L11.166453,10.3703704 C9.16730769,10.3703704 7.31068376,11.4197293 6.28048433,13.1367521 L1.6566889,23.2081328 L1.6566889,2.63013573 C1.6566889,2.00071977 2.16882531,1.58353412 2.79824126,1.58353412 Z M32.9951653,25.5982598 C32.3773438,26.6280334 31.0007984,26.6817941 29.7999083,26.681765 L1.83881466,26.6817651 L7.82168715,13.7714716 C8.43955243,12.7417077 10.0369931,11.9458464 11.2378975,11.945858 L36.8771425,11.945858 C37.7629687,11.945858 38.5920371,12.9287332 38.0792166,13.7714716 L32.9951653,25.5982598 Z" id="Shape"></path>
            </g>
        </g>
    </g>
</svg>