<?xml version="1.0" encoding="UTF-8"?>
<svg width="41px" height="39px" viewBox="0 0 41 39" version="1.1" xmlns="http://www.w3.org/2000/svg" xmlns:xlink="http://www.w3.org/1999/xlink">
    <!-- Generator: Sketch 53.2 (72643) - https://sketchapp.com -->
    <title>Region Copy</title>
    <desc>Created with Sketch.</desc>
    <g id="Page-1" stroke="none" stroke-width="1" fill="none" fill-rule="evenodd">
        <g id="Icon-v3" transform="translate(-195.000000, -114.000000)" stroke="#000000">
            <g id="Region-Copy" transform="translate(196.000000, 115.000000)">
                <g id="Map" transform="translate(0.000000, 10.285714)">
                    <polygon id="Path-2" stroke-linejoin="round" points="5.68434189e-14 7.08960071 5.88486141 2.7011091 13.7142857 2.85714286 18 8 20.5714286 5.14285714 24 -1.37112544e-14 40 8.7774821 31.4712154 15.1914314 20 19.7487111 13.9872068 27.4285714"></polygon>
                    <path d="M5.71428571,2.85714286 L19.4285714,20" id="Path-3"></path>
                    <path d="M20.0840336,5.14285714 L31.3865546,15.3860685" id="Path-3"></path>
                </g>
                <g id="Location-pin" transform="translate(11.428571, 0.000000)">
                    <path d="M6.57142857,18.2857143 C10.952381,13.1150942 13.1428571,9.28099279 13.1428571,6.78341014 C13.1428571,3.03703617 10.2007284,-1.77635684e-15 6.57142857,-1.77635684e-15 C2.94212879,-1.77635684e-15 1.77635684e-15,3.03703617 1.77635684e-15,6.78341014 C1.77635684e-15,9.28099279 2.19047619,13.1150942 6.57142857,18.2857143 Z" id="Oval" stroke-linejoin="round"></path>
                    <path d="M6.57142857,9.71428571 C8.14285714,9.71428571 9.71428571,8.30718064 9.71428571,6.57142857 C9.71428571,4.8356765 8.30718064,3.42857143 6.57142857,3.42857143 C4.8356765,3.42857143 3.42857143,4.8356765 3.42857143,6.57142857 C3.42857143,8.30718064 5,9.71428571 6.57142857,9.71428571 Z" id="Oval"></path>
                </g>
            </g>
        </g>
    </g>
</svg>