<?xml version="1.0" encoding="UTF-8"?>
<svg width="35px" height="38px" viewBox="0 0 35 38" version="1.1" xmlns="http://www.w3.org/2000/svg" xmlns:xlink="http://www.w3.org/1999/xlink">
    <!-- Generator: Sketch 53.2 (72643) - https://sketchapp.com -->
    <title>Group 4</title>
    <desc>Created with Sketch.</desc>
    <g id="Page-1" stroke="none" stroke-width="1" fill="none" fill-rule="evenodd">
        <g id="Icon-Sprint3-Pt2" transform="translate(-154.000000, -115.000000)">
            <g id="Group-4" transform="translate(153.000000, 114.000000)">
                <g id="Group-3" transform="translate(9.333333, 9.714286)"></g>
                <g id="invoice" transform="translate(0.761905, 0.190476)" fill="#000000" fill-rule="nonzero">
                    <g id="router-copy-4" transform="translate(4.761905, 15.238095)">
                        <path d="M23.035776,12.3809524 L2.67855992,12.3809524 C1.20214521,12.3809524 0,13.6021796 0,15.1020299 L0,17.2789225 C0,18.7787728 1.20214521,20 2.67855992,20 L23.0357258,20 C24.5121405,20 25.7142857,18.7798442 25.7142857,17.2789225 L25.7142857,15.1020299 C25.7143359,13.6021796 24.5121907,12.3809524 23.035776,12.3809524 Z M24.642922,17.2789225 C24.642922,18.1790776 23.9218659,18.9115792 23.035776,18.9115792 L2.67855992,18.9115792 C1.79247002,18.9115792 1.07141392,18.1790776 1.07141392,17.2789225 L1.07141392,15.1020299 C1.07141392,14.2018748 1.79247002,13.4693732 2.67855992,13.4693732 L23.0357258,13.4693732 C23.9218157,13.4693732 24.6428718,14.2018748 24.6428718,15.1020299 L24.6428718,17.2789225 L24.642922,17.2789225 Z" id="Shape"></path>
                        <path d="M19.5238095,3.80952381 C19.2609606,3.80952381 19.047619,4.04954008 19.047619,4.34525379 L19.047619,11.8452224 C19.047619,12.1409361 19.2609606,12.3809524 19.5238095,12.3809524 C19.7866585,12.3809524 20,12.142041 20,11.8452224 L20,4.34520357 C20,4.04948986 19.7866585,3.80952381 19.5238095,3.80952381 Z" id="Path"></path>
                        <path d="M17.0144108,2.75936284 C17.1856726,2.56405768 17.1856726,2.24654594 17.0144108,2.05124078 C16.8431491,1.85593561 16.5647253,1.85593561 16.3934635,2.05124078 C14.8529725,3.80898726 14.8529725,6.66743796 16.3934635,8.42518444 C16.4795473,8.52232059 16.5919378,8.57142857 16.7043695,8.57142857 C16.8168011,8.57142857 16.9291917,8.52236754 17.0144108,8.42518444 C17.1856726,8.22987928 17.1856726,7.91236754 17.0144108,7.71706237 C15.8164432,6.34997317 15.8164432,4.12649899 17.0144108,2.75936284 Z" id="Path"></path>
                        <path d="M21.7017746,2.05123975 C21.5305128,1.85593596 21.252089,1.85593596 21.0808273,2.05123975 C20.9095655,2.24654354 20.9095655,2.56405304 21.0808273,2.75935683 C22.2787949,4.12648335 22.2787949,6.34994187 21.0808273,7.71706839 C20.9095655,7.91237218 20.9095655,8.22988168 21.0808273,8.42518547 C21.166911,8.52232094 21.2793015,8.57142857 21.3917332,8.57142857 C21.5041649,8.57142857 21.6156908,8.52236788 21.7017746,8.42518547 C23.2422656,6.66740442 23.2422656,3.80897385 21.7017746,2.05123975 Z" id="Path"></path>
                        <path d="M15.0863556,1.0281879 C15.2886751,0.793212254 15.2886751,0.411207378 15.0863556,0.176231733 C14.8840361,-0.0587439111 14.555121,-0.0587439111 14.3528015,0.176231733 C11.7236693,3.22972894 11.7236693,8.19912491 14.3528015,11.2526221 C14.4544962,11.3694886 14.5872684,11.4285714 14.7200892,11.4285714 C14.85291,11.4285714 14.9856822,11.3695451 15.0863556,11.2526221 C15.2886751,11.0176465 15.2886751,10.6356416 15.0863556,10.400666 C12.8608411,7.81717652 12.8608411,3.61291999 15.0863556,1.0281879 Z" id="Path"></path>
                        <path d="M24.6948175,0.176230862 C24.492498,-0.0587436208 24.1635829,-0.0587436208 23.9612634,0.176230862 C23.7589439,0.411205346 23.7589439,0.793208334 23.9612634,1.02818282 C26.1867779,3.61171596 26.1867779,7.81595172 23.9612634,10.400671 C23.7589439,10.6356455 23.7589439,11.0176485 23.9612634,11.252623 C24.0629582,11.3694889 24.1957303,11.4285714 24.3285511,11.4285714 C24.461372,11.4285714 24.5941441,11.3695454 24.6948175,11.252623 C27.3239497,8.19908439 27.3239497,3.22965649 24.6948175,0.176230862 Z" id="Path"></path>
                    </g>
                    <path d="M35.2380952,3.80952381 C35.2380952,1.80952381 34.2380952,0.80952381 32.2380952,0.80952381 L4.23809524,0.80952381 C2.23809524,0.80952381 0.238095238,0.80952381 0.238095238,4.80952381 L0.238095238,33.8095238 C0.238095238,36.3598619 -2.2565283e-14,39 4.23809524,38.8095238 L31.2380952,38.8095238 C35.2380952,38.8095238 35.0754129,36.5814429 35.2269958,34.1628747 C35.2343546,34.0454623 35.2380952,33.927601 35.2380952,33.8095238 L35.2380952,3.80952381 Z M34.2380952,35.752381 C34.2380952,37.0752291 33.3135465,37.8095238 32.109063,37.8095238 L3.3671275,37.8095238 C2.16254731,37.8095238 1.23809524,37.0752291 1.23809524,35.752381 L1.23809524,3.86666667 C1.23809524,2.54381851 2.16264399,1.80952381 3.3671275,1.80952381 C13.2323393,1.80952381 22.8129845,1.80952381 32.109063,1.80952381 C33.5493922,1.8546807 34.2380952,2.80952381 34.2380952,3.80952381 C34.2380952,4.99866073 34.2380952,15.6462798 34.2380952,35.752381 Z" id="Shape"></path>
                    <path d="M12.3809524,11.2600676 C12.3809524,11.6933422 12.731555,12.0439447 13.1648295,12.0439447 L22.5710611,12.0439447 C23.0043357,12.0439447 23.3549383,11.6933422 23.3549383,11.2600676 C23.3549383,10.8267931 23.0043357,10.4761905 22.5710611,10.4761905 L13.1648295,10.4761905 C12.731555,10.476264 12.3809524,10.8268665 12.3809524,11.2600676 Z" id="Path"></path>
                    <path d="M8.14246393,10.5980787 C6.89826355,10.1102962 6.53880441,9.81533129 6.53880441,9.28267282 C6.53880441,8.85640831 6.86892474,8.35841109 7.79966924,8.35841109 C8.62291634,8.35841109 9.25428759,8.67587141 9.25992064,8.67862595 C9.32634372,8.71328719 9.4008643,8.73176554 9.47468075,8.73176554 C9.65482107,8.73176554 9.8141895,8.62514203 9.88026051,8.46009939 L10.1064041,7.8947308 C10.1851495,7.68871443 10.0656818,7.50921048 9.91335469,7.44482319 C9.40649735,7.22905118 8.41590167,7.06205741 8.40580912,7.06033582 C8.3898488,7.05758129 8.33433977,7.04598928 8.33433977,6.98252017 L8.33117118,6.16235696 C8.33117118,5.91536687 8.12028379,5.71428571 7.8613981,5.71428571 L7.455701,5.71428571 C7.19705002,5.71428571 6.98627999,5.9152521 6.98627999,6.16247174 L6.98733619,7.0247564 C6.98733619,7.09086527 6.91410651,7.11955836 6.88734951,7.12564129 C5.6369293,7.41693351 4.85546068,8.3127317 4.85546068,9.44266547 C4.85546068,10.8512665 6.04602971,11.487794 7.33153914,11.9655912 C8.35921908,12.3601786 8.77841204,12.760275 8.77841204,13.347106 C8.77841204,13.9856994 8.18471182,14.4317047 7.33412096,14.4317047 C6.6078093,14.4317047 5.62484171,13.9814528 5.61510122,13.9768619 C5.55219881,13.9477097 5.48554103,13.9330189 5.41700556,13.9330189 C5.22994129,13.9330189 5.0670522,14.0436594 5.00192003,14.2150145 L4.78598637,14.7868104 C4.70923603,15.0002869 4.82741277,15.1735932 4.97868369,15.2507202 C5.58235911,15.5581953 6.75051329,15.7383879 6.80250167,15.7463072 C6.81646694,15.7482583 6.88758422,15.7727048 6.88758422,15.8362887 L6.88758422,16.6947859 C6.88758422,16.941776 7.09847161,17.1428571 7.35747465,17.1428571 L7.77666761,17.1428571 C8.03578801,17.1428571 8.2466754,16.9418908 8.2466754,16.6947859 L8.2466754,15.791298 C8.2466754,15.7068255 8.3103993,15.6993653 8.32354309,15.6962665 C9.65564255,15.403597 10.4761905,14.4504126 10.4761905,13.2535666 C10.4758384,12.0242399 9.77780937,11.2299005 8.14246393,10.5980787 Z" id="Path"></path>
                </g>
            </g>
        </g>
    </g>
</svg>