<?xml version="1.0" encoding="UTF-8"?>
<svg width="39px" height="28px" viewBox="0 0 39 28" version="1.1" xmlns="http://www.w3.org/2000/svg" xmlns:xlink="http://www.w3.org/1999/xlink">
    <!-- Generator: Sketch 53.2 (72643) - https://sketchapp.com -->
    <title>Group 4</title>
    <desc>Created with Sketch.</desc>
    <g id="Page-1" stroke="none" stroke-width="1" fill="none" fill-rule="evenodd">
        <g id="Icon-Sprint3-Pt2" transform="translate(-486.000000, -118.000000)" fill-rule="nonzero">
            <g id="Group-4" transform="translate(486.000000, 118.000000)">
                <g id="folder-tree" transform="translate(0.000000, -0.000000)" fill="#111111">
                    <path d="M1.23883929,0.516183036 C1.23883929,0.231103017 1.00773627,-9.9475983e-14 0.72265625,-9.9475983e-14 L0.516183036,-9.9475983e-14 C0.231103017,-9.9475983e-14 0,0.231103017 0,0.516183036 L0,18.4743304 C0,19.0444904 0.462206034,19.5066964 1.03236607,19.5066964 L13.6272321,19.5066964 L13.6272321,18.2678571 L1.23883929,18.2678571 L1.23883929,0.516183036 Z" id="Shape"></path>
                </g>
                <g id="invoice" transform="translate(12.571429, 9.142857)" fill="#000000">
                    <path d="M26.4285714,3.37817096 C26.4285714,1.85714286 25.8008186,0.857142857 24.0901711,0.857142857 L3.31741518,0.857142857 C1.72491518,0.857142857 0.428571429,1.98775604 0.428571429,3.37817096 L0.428571429,16.3361738 C0.428571429,17.7265297 1.72491518,18.8571429 3.31748289,18.8571429 L23.5397277,18.8571429 C25.1322277,18.8571429 26.4285714,17.7265297 26.4285714,16.3361148 L26.4285714,3.37817096 Z M25.4285714,16.8571429 C25.4285714,17.2580531 24.7561723,17.8571429 23.9285934,17.8571429 L2.92854946,17.8571429 C2.10090021,17.8571429 1.42857143,17.2580531 1.42857143,16.8571429 L1.42857143,3.85714286 C1.42857143,2.449204 2.10097052,1.85714286 2.92854946,1.85714286 C10.1355217,1.85714286 17.2143349,1.85714286 24.1649892,1.85714286 C25.4285714,1.85714286 25.4285714,2.85714286 25.4285714,3.85714286 C25.4285714,4.29570263 25.4285714,8.62903597 25.4285714,16.8571429 Z" id="Shape"></path>
                    <path d="M12.2857143,9.44505071 C12.2857143,9.77000661 12.5486662,10.0329586 12.8736221,10.0329586 L19.9282959,10.0329586 C20.2532518,10.0329586 20.5162037,9.77000661 20.5162037,9.44505071 C20.5162037,9.1200948 20.2532518,8.85714286 19.9282959,8.85714286 L12.8736221,8.85714286 C12.5486662,8.85719797 12.2857143,9.12014991 12.2857143,9.44505071 Z" id="Path"></path>
                    <path d="M9.10684795,8.94855903 C8.17369766,8.58272217 7.90410331,8.36149847 7.90410331,7.96200461 C7.90410331,7.64230624 8.15169355,7.26880832 8.84975193,7.26880832 C9.46718725,7.26880832 9.94071569,7.50690356 9.94494048,7.50896946 C9.99475779,7.5349654 10.0506482,7.54882416 10.1060106,7.54882416 C10.2411158,7.54882416 10.3606421,7.46885652 10.4101954,7.34507454 L10.5798031,6.9210481 C10.6388621,6.76653583 10.5492614,6.63190786 10.435016,6.58361739 C10.054873,6.42178838 9.31192625,6.29654306 9.30435684,6.29525187 C9.2923866,6.29318597 9.25075483,6.28449196 9.25075483,6.23689013 L9.24837838,5.62176772 C9.24837838,5.43652515 9.09021284,5.28571429 8.89604858,5.28571429 L8.59177575,5.28571429 C8.39778752,5.28571429 8.23970999,5.43643907 8.23970999,5.6218538 L8.24050214,6.2685673 C8.24050214,6.31814895 8.18557988,6.33966877 8.16551213,6.34423097 C7.22769698,6.56270013 6.64159551,7.23454877 6.64159551,8.0819991 C6.64159551,9.13844988 7.53452228,9.61584547 8.49865436,9.97419344 C9.26941431,10.2701339 9.58380903,10.5702062 9.58380903,11.0103295 C9.58380903,11.4892745 9.13853387,11.8237785 8.50059072,11.8237785 C7.95585698,11.8237785 7.21863128,11.4860896 7.21132592,11.4826464 C7.16414911,11.4607823 7.11415577,11.4497641 7.06275417,11.4497641 C6.92245597,11.4497641 6.80028915,11.5327446 6.75144002,11.6612609 L6.58948978,12.0901078 C6.53192703,12.2502152 6.62055958,12.3801949 6.73401277,12.4380401 C7.18676933,12.6686465 8.06288497,12.8037909 8.10187625,12.8097304 C8.11235021,12.8111937 8.16568817,12.8295286 8.16568817,12.8772165 L8.16568817,13.5210894 C8.16568817,13.706332 8.32385371,13.8571429 8.51810599,13.8571429 L8.83250071,13.8571429 C9.02684101,13.8571429 9.18500655,13.7064181 9.18500655,13.5210894 L9.18500655,12.8434735 C9.18500655,12.7801191 9.23279947,12.774524 9.24265732,12.7721998 C10.2417319,12.5526977 10.8571429,11.8378095 10.8571429,10.9401749 C10.8568788,10.0181799 10.333357,9.42242537 9.10684795,8.94855903 Z" id="Path"></path>
                </g>
            </g>
        </g>
    </g>
</svg>