<?xml version="1.0" encoding="UTF-8"?>
<svg width="39px" height="38px" viewBox="0 0 39 38" version="1.1" xmlns="http://www.w3.org/2000/svg" xmlns:xlink="http://www.w3.org/1999/xlink">
    <!-- Generator: Sketch 53.2 (72643) - https://sketchapp.com -->
    <title>Group</title>
    <desc>Created with Sketch.</desc>
    <g id="Page-1" stroke="none" stroke-width="1" fill="none" fill-rule="evenodd">
        <g id="Icon-Sprint3-Pt2" transform="translate(-158.000000, -256.000000)" fill="#000000" fill-rule="nonzero">
            <g id="Group" transform="translate(157.000000, 255.000000)">
                <g id="Group-4">
                    <g id="invoice" transform="translate(0.571429, 0.142857)">
                        <path d="M26.4285714,3.37817096 C26.4285714,1.85714286 25.8008186,0.857142857 24.0901711,0.857142857 L3.31741518,0.857142857 C1.72491518,0.857142857 0.428571429,1.98775604 0.428571429,3.37817096 L0.428571429,16.3361738 C0.428571429,17.7265297 1.72491518,18.8571429 3.31748289,18.8571429 C8.25574446,18.8571429 11.9594406,18.8571429 14.4285714,18.8571429 C14.8266359,18.8571429 14.3625279,18.1094893 14.4285714,17.8571429 C14.6939477,16.8431635 14.6939477,15.1431665 14.4285714,12.7571518 C16.0210714,12.7571518 25.4285714,11.8571429 25.4285714,11.8571429 C26.0952381,12.5238095 26.4285714,12.5238095 26.4285714,11.8571429 C26.4285714,10.1951491 26.4285714,7.36882513 26.4285714,3.37817096 Z M23.4285714,11.8571429 C23.4285714,12.2580531 15.6505403,12.1530962 14.8229613,12.1530962 C14.8437207,15.2891273 14.8437207,16.8571429 14.8229613,16.8571429 C14.4285714,16.8571429 15.4285714,17.8571429 14.8229613,17.8571429 C14.6876414,17.8571429 14.5561781,17.8571429 14.4285714,17.8571429 C11.873011,17.8571429 8.03967033,17.8571429 2.92854946,17.8571429 C2.10090021,17.8571429 1.42857143,17.2580531 1.42857143,16.8571429 L1.42857143,3.85714286 C1.42857143,2.449204 2.10097052,1.85714286 2.92854946,1.85714286 C10.1355217,1.85714286 17.2143349,1.85714286 24.1649892,1.85714286 C25.4285714,1.85714286 25.4285714,2.85714286 25.4285714,3.85714286 C25.4285714,4.17988172 25.4285714,11.7571518 25.4285714,11.8571429 C25.4285714,12.0544451 24.7619048,12.0544451 23.4285714,11.8571429 Z" id="Shape"></path>
                        <path d="M12.2857143,9.44505071 C12.2857143,9.77000661 12.5486662,10.0329586 12.8736221,10.0329586 L19.9282959,10.0329586 C20.2532518,10.0329586 20.5162037,9.77000661 20.5162037,9.44505071 C20.5162037,9.1200948 20.2532518,8.85714286 19.9282959,8.85714286 L12.8736221,8.85714286 C12.5486662,8.85719797 12.2857143,9.12014991 12.2857143,9.44505071 Z" id="Path"></path>
                        <path d="M9.10684795,8.94855903 C8.17369766,8.58272217 7.90410331,8.36149847 7.90410331,7.96200461 C7.90410331,7.64230624 8.15169355,7.26880832 8.84975193,7.26880832 C9.46718725,7.26880832 9.94071569,7.50690356 9.94494048,7.50896946 C9.99475779,7.5349654 10.0506482,7.54882416 10.1060106,7.54882416 C10.2411158,7.54882416 10.3606421,7.46885652 10.4101954,7.34507454 L10.5798031,6.9210481 C10.6388621,6.76653583 10.5492614,6.63190786 10.435016,6.58361739 C10.054873,6.42178838 9.31192625,6.29654306 9.30435684,6.29525187 C9.2923866,6.29318597 9.25075483,6.28449196 9.25075483,6.23689013 L9.24837838,5.62176772 C9.24837838,5.43652515 9.09021284,5.28571429 8.89604858,5.28571429 L8.59177575,5.28571429 C8.39778752,5.28571429 8.23970999,5.43643907 8.23970999,5.6218538 L8.24050214,6.2685673 C8.24050214,6.31814895 8.18557988,6.33966877 8.16551213,6.34423097 C7.22769698,6.56270013 6.64159551,7.23454877 6.64159551,8.0819991 C6.64159551,9.13844988 7.53452228,9.61584547 8.49865436,9.97419344 C9.26941431,10.2701339 9.58380903,10.5702062 9.58380903,11.0103295 C9.58380903,11.4892745 9.13853387,11.8237785 8.50059072,11.8237785 C7.95585698,11.8237785 7.21863128,11.4860896 7.21132592,11.4826464 C7.16414911,11.4607823 7.11415577,11.4497641 7.06275417,11.4497641 C6.92245597,11.4497641 6.80028915,11.5327446 6.75144002,11.6612609 L6.58948978,12.0901078 C6.53192703,12.2502152 6.62055958,12.3801949 6.73401277,12.4380401 C7.18676933,12.6686465 8.06288497,12.8037909 8.10187625,12.8097304 C8.11235021,12.8111937 8.16568817,12.8295286 8.16568817,12.8772165 L8.16568817,13.5210894 C8.16568817,13.706332 8.32385371,13.8571429 8.51810599,13.8571429 L8.83250071,13.8571429 C9.02684101,13.8571429 9.18500655,13.7064181 9.18500655,13.5210894 L9.18500655,12.8434735 C9.18500655,12.7801191 9.23279947,12.774524 9.24265732,12.7721998 C10.2417319,12.5526977 10.8571429,11.8378095 10.8571429,10.9401749 C10.8568788,10.0181799 10.333357,9.42242537 9.10684795,8.94855903 Z" id="Path"></path>
                    </g>
                </g>
                <g id="building-(1)" transform="translate(13.000000, 12.000000)">
                    <path d="M26.5500232,24.3000804 L25.2000393,24.3000804 L25.2000393,0.449977661 C25.2000393,0.179980342 25.0200593,0 24.7500625,0 L2.24999106,0 C1.97999428,0 1.8000143,0.179980342 1.8000143,0.449977661 L1.8000143,24.3000268 L0.449976767,24.3000268 C0.179979984,24.3000268 0,24.4800071 0,24.7500045 L0,26.5500223 C0,26.8200197 0.179979984,27 0.449976767,27 L26.5500232,27 C26.82002,27 27,26.8200197 27,26.5500223 L27,24.7500045 C27.0000536,24.4800608 26.82002,24.3000804 26.5500232,24.3000804 Z M2.70002144,0.900008936 L24.3000322,0.900008936 L24.3000322,24.3000804 L17.5500054,24.3000804 L17.5500054,19.3500581 C17.5500054,19.0800608 17.3700254,18.9000804 17.1000286,18.9000804 L13.5,18.9000804 L9.8999714,18.9000804 C9.62997462,18.9000804 9.44999463,19.0800608 9.44999463,19.3500581 L9.44999463,24.3000804 L2.70002144,24.3000804 L2.70002144,0.900008936 Z M10.377291,19.8000357 L16.6500518,19.8000357 L16.6500518,24.3000268 L10.377291,24.3000268 L10.377291,19.8000357 Z M26.1001001,26.1000983 L0.900007148,26.1000983 L0.900007148,25.2000894 L2.24999106,25.2000894 L9.90002502,25.2000894 L13.5000536,25.2000894 L17.1000822,25.2000894 L24.7501162,25.2000894 L26.1001001,25.2000894 L26.1001001,26.1000983 L26.1001001,26.1000983 Z" id="Shape"></path>
                    <path d="M10.5999714,2 L7.39998094,2 C7.15998284,2 7,2.19997915 7,2.49997766 L7,5.50002234 C7,5.80002085 7.15998284,6 7.39998094,6 L10.6000191,6 C10.8400172,6 11,5.80002085 11,5.50002234 L11,2.50003723 C11,2.20003872 10.8399695,2 10.5999714,2 Z M10.1999905,5.00004468 L7.79996187,5.00004468 L7.79996187,3.00001489 L10.1999905,3.00001489 L10.1999905,5.00004468 Z" id="Shape"></path>
                    <path d="M10.5999714,7 L7.39998094,7 C7.15998284,7 7,7.19997915 7,7.49997766 L7,10.5000223 C7,10.8000208 7.15998284,11 7.39998094,11 L10.6000191,11 C10.8400172,11 11,10.8000208 11,10.5000223 L11,7.49997766 C11,7.19997915 10.8399695,7 10.5999714,7 Z M10.1999905,10.0000447 L7.79996187,10.0000447 L7.79996187,8.00001489 L10.1999905,8.00001489 L10.1999905,10.0000447 Z" id="Shape"></path>
                    <path d="M16.3999809,11 L19.6000191,11 C19.8400172,11 20,10.8000208 20,10.5000223 L20,7.49997766 C20,7.19997915 19.8400172,7 19.6000191,7 L16.3999809,7 C16.1599828,7 16,7.19997915 16,7.49997766 L16,10.5000223 C16,10.7999613 16.1599828,11 16.3999809,11 Z M16.8000095,7.99995532 L19.2000381,7.99995532 L19.2000381,9.99998511 L16.8000095,9.99998511 L16.8000095,7.99995532 Z" id="Shape"></path>
                    <path d="M16.3999809,16 L19.6000191,16 C19.8400172,16 20,15.8000208 20,15.5000223 L20,12.4999777 C20,12.1999792 19.8400172,12 19.6000191,12 L16.3999809,12 C16.1599828,12 16,12.1999792 16,12.4999777 L16,15.5000223 C16,15.7999613 16.1599828,16 16.3999809,16 Z M16.8000095,12.9999553 L19.2000381,12.9999553 L19.2000381,14.9999851 L16.8000095,14.9999851 L16.8000095,12.9999553 Z" id="Shape"></path>
                    <path d="M10.5999714,12 L7.39998094,12 C7.15998284,12 7,12.1999792 7,12.4999777 L7,15.5000223 C7,15.8000208 7.15998284,16 7.39998094,16 L10.6000191,16 C10.8400172,16 11,15.8000208 11,15.5000223 L11,12.4999777 C11,12.1999792 10.8399695,12 10.5999714,12 Z M10.1999905,15.0000447 L7.79996187,15.0000447 L7.79996187,13.0000149 L10.1999905,13.0000149 L10.1999905,15.0000447 Z" id="Shape"></path>
                    <path d="M16.3999809,6 L19.6000191,6 C19.8400172,6 20,5.80002085 20,5.50002234 L20,2.49997766 C20,2.19997915 19.8400172,2 19.6000191,2 L16.3999809,2 C16.1599828,2 16,2.19997915 16,2.49997766 L16,5.50002234 C16,5.79996128 16.1599828,6 16.3999809,6 Z M16.8000095,2.99995532 L19.2000381,2.99995532 L19.2000381,4.99998511 L16.8000095,4.99998511 L16.8000095,2.99995532 Z" id="Shape"></path>
                </g>
            </g>
        </g>
    </g>
</svg>