<?xml version="1.0" encoding="UTF-8"?>
<svg width="40px" height="43px" viewBox="0 0 40 43" version="1.1" xmlns="http://www.w3.org/2000/svg" xmlns:xlink="http://www.w3.org/1999/xlink">
    <!-- Generator: Sketch 53.2 (72643) - https://sketchapp.com -->
    <title>post-it</title>
    <desc>Created with Sketch.</desc>
    <g id="Page-1" stroke="none" stroke-width="1" fill="none" fill-rule="evenodd">
        <g id="Icon-v3" transform="translate(-336.000000, -254.000000)" fill="#000000" fill-rule="nonzero">
            <g id="post-it" transform="translate(336.000000, 254.000000)">
                <path d="M39.1836735,6.07534082 L35.1020408,6.07534082 L35.1020408,0.810045443 C35.1020408,0.362657345 34.7365714,0 34.2857143,0 L0.816326531,0 C0.365469388,0 0,0.362657345 0,0.810045443 L0,32.8068404 C0,33.2542285 0.365469388,33.6168859 0.816326531,33.6168859 L4.89795918,33.6168859 L4.89795918,42.1898736 C4.89795918,42.6372617 5.26342857,42.999919 5.71428571,42.999919 L31.0194286,42.999919 C31.2327347,43 31.4414694,42.9176184 31.5976327,42.7627377 L39.760898,34.6622833 C39.9169796,34.5073216 39.9978776,34.300193 39.9979592,34.0895001 L40,30.7818078 L40,6.88538626 C40,6.43799816 39.6345306,6.07534082 39.1836735,6.07534082 Z M4.89804082,6.88538626 L4.89804082,31.996795 L1.63273469,31.996795 L1.63273469,1.62009089 L33.4694694,1.62009089 L33.4694694,6.07534082 L5.71436735,6.07534082 C5.26342857,6.07534082 4.89804082,6.43799816 4.89804082,6.88538626 Z M31.8367347,40.2342618 L31.8367347,34.8994646 L37.2128163,34.8994646 L31.8367347,40.2342618 Z M38.3673469,33.2793737 L31.0204082,33.2793737 C30.5696327,33.2793737 30.2040816,33.642031 30.2040816,34.0894191 L30.2040816,41.3798281 L6.53061224,41.3798281 L6.53061224,7.6954317 L38.3673469,7.6954317 L38.3673469,33.2793737 Z" id="Shape"></path>
                <rect id="Rectangle" x="10" y="13.5615385" width="22.5" height="1.65384615"></rect>
                <rect id="Rectangle" x="10" y="21.5" width="22.5" height="1.65384615"></rect>
                <rect id="Rectangle" x="10" y="28.7769231" width="17.5" height="1.65384615"></rect>
            </g>
        </g>
    </g>
</svg>