<?xml version="1.0" encoding="UTF-8"?>
<svg width="40px" height="40px" viewBox="0 0 40 40" version="1.1" xmlns="http://www.w3.org/2000/svg" xmlns:xlink="http://www.w3.org/1999/xlink">
    <!-- Generator: Sketch 53.2 (72643) - https://sketchapp.com -->
    <title>internet</title>
    <desc>Created with Sketch.</desc>
    <g id="Page-1" stroke="none" stroke-width="1" fill="none" fill-rule="evenodd">
        <g id="Icon-v3" transform="translate(-46.000000, -114.000000)" fill="#000000" fill-rule="nonzero">
            <g id="internet" transform="translate(46.000000, 114.000000)">
                <path d="M34.9572414,33.2565517 C38.0910345,29.7248276 40,25.082069 40,20 C40,14.7124138 37.9337931,9.90137931 34.5710345,6.32137931 C34.5710345,6.32137931 34.5710345,6.32068966 34.5710345,6.32068966 C34.5682759,6.31655172 34.5641379,6.31517241 34.562069,6.31172414 C31.0593103,2.58827586 26.1517241,0.204827586 20.6931034,0.0179310345 L20.6924138,0.0172413793 L20.3027586,0.00689655172 C20.202069,0.00344827586 20.1013793,0 20,0 C19.8986207,0 19.797931,0.00344827586 19.6972414,0.00689655172 L19.3089655,0.0172413793 L19.3082759,0.0179310345 C13.8496552,0.204827586 8.94206897,2.58827586 5.43931034,6.31172414 C5.43655172,6.31517241 5.43241379,6.31655172 5.43034483,6.32068966 C5.43034483,6.32068966 5.43034483,6.32137931 5.42965517,6.32206897 C2.0662069,9.90137931 0,14.7124138 0,20 C0,25.082069 1.90896552,29.7248276 5.04275862,33.2565517 C5.04689655,33.2627586 5.04689655,33.2696552 5.05172414,33.2758621 C5.06413793,33.2931034 5.08206897,33.3013793 5.09517241,33.3172414 C8.61655172,37.2537931 13.6689655,39.7896552 19.3075862,39.9827586 L19.3082759,39.9834483 L19.6965517,39.9937931 C19.797931,39.9965517 19.8986207,40 20,40 C20.1013793,40 20.202069,39.9965517 20.3027586,39.9931034 L20.6910345,39.9827586 L20.6917241,39.982069 C26.3365517,39.7882759 31.3944828,37.2475862 34.9158621,33.3027586 C34.9248276,33.2910345 34.9393103,33.2875862 34.9475862,33.2751724 C34.9531034,33.2696552 34.9531034,33.2627586 34.9572414,33.2565517 Z M1.39655172,20.6896552 L9.67448276,20.6896552 C9.75241379,23.6131034 10.3234483,26.4537931 11.34,29.1151724 C9.37862069,29.8248276 7.50344828,30.7765517 5.7462069,31.9641379 C3.16206897,28.8903448 1.5537931,24.9724138 1.39655172,20.6896552 Z M6.12275862,7.60206897 C7.83862069,8.71793103 9.66551724,9.61172414 11.5710345,10.2793103 C10.4041379,13.1117241 9.75862069,16.1655172 9.67448276,19.3103448 L1.39655172,19.3103448 C1.56137931,14.8227586 3.31862069,10.7365517 6.12275862,7.60206897 Z M38.6034483,19.3103448 L30.3255172,19.3103448 C30.2413793,16.1655172 29.5958621,13.1117241 28.4289655,10.2793103 C30.3344828,9.61172414 32.1613793,8.71793103 33.8772414,7.60206897 C36.6813793,10.7365517 38.4386207,14.8227586 38.6034483,19.3103448 Z M19.3103448,10.3193103 C17.3165517,10.2627586 15.3593103,9.96551724 13.4682759,9.43448276 C14.8662069,6.56689655 16.84,3.97862069 19.3103448,1.82344828 L19.3103448,10.3193103 Z M19.3103448,11.6986207 L19.3103448,19.3103448 L11.0537931,19.3103448 C11.1386207,16.3117241 11.7675862,13.4034483 12.8924138,10.7068966 C14.9655172,11.3075862 17.117931,11.64 19.3103448,11.6986207 Z M20.6896552,11.6986207 C22.882069,11.64 25.0344828,11.3082759 27.1082759,10.7068966 C28.2331034,13.4034483 28.862069,16.3117241 28.9468966,19.3103448 L20.6896552,19.3103448 L20.6896552,11.6986207 Z M20.6896552,10.3193103 L20.6896552,1.82344828 C23.16,3.97862069 25.1337931,6.56689655 26.5317241,9.43448276 C24.6406897,9.96551724 22.6834483,10.2627586 20.6896552,10.3193103 Z M27.8682759,9.01517241 C26.5434483,6.23931034 24.7048276,3.71034483 22.4282759,1.54275862 C26.4668966,2.07103448 30.1006897,3.89724138 32.8993103,6.58965517 C31.3103448,7.59793103 29.6248276,8.40896552 27.8682759,9.01517241 Z M12.1317241,9.01517241 C10.3751724,8.40896552 8.68965517,7.59793103 7.10137931,6.58965517 C9.89931034,3.89724138 13.5337931,2.07103448 17.5724138,1.54275862 C15.2951724,3.71034483 13.4565517,6.23931034 12.1317241,9.01517241 Z M11.0537931,20.6896552 L19.3103448,20.6896552 L19.3103448,27.6124138 C17.0296552,27.6731034 14.7951724,28.0289655 12.6475862,28.6751724 C11.6772414,26.1544828 11.1317241,23.4613793 11.0537931,20.6896552 Z M19.3103448,28.9917241 L19.3103448,38.1765517 C16.6662069,35.8696552 14.5931034,33.0668966 13.1834483,29.957931 C15.1606897,29.3751724 17.2144828,29.0510345 19.3103448,28.9917241 Z M20.6896552,38.1765517 L20.6896552,28.9917241 C22.7855172,29.0503448 24.8393103,29.3751724 26.8165517,29.9572414 C25.4068966,33.0668966 23.3337931,35.8696552 20.6896552,38.1765517 Z M20.6896552,27.6124138 L20.6896552,20.6896552 L28.9462069,20.6896552 C28.8682759,23.4613793 28.3227586,26.1544828 27.3517241,28.6758621 C25.2048276,28.0289655 22.9703448,27.6731034 20.6896552,27.6124138 Z M30.3255172,20.6896552 L38.6034483,20.6896552 C38.4462069,24.9724138 36.8386207,28.8903448 34.2537931,31.9641379 C32.4965517,30.7765517 30.6213793,29.8248276 28.66,29.1151724 C29.6772414,26.4537931 30.2475862,23.6131034 30.3255172,20.6896552 Z M6.68344828,32.9972414 C8.31517241,31.9131034 10.0524138,31.0413793 11.8675862,30.3896552 C13.2089655,33.3965517 15.1344828,36.1365517 17.5717241,38.4572414 C13.3296552,37.902069 9.53310345,35.9158621 6.68344828,32.9972414 Z M22.4282759,38.4572414 C24.8655172,36.1372414 26.7910345,33.3972414 28.1324138,30.3896552 C29.9475862,31.0413793 31.6841379,31.9131034 33.3165517,32.9972414 C30.4668966,35.9158621 26.6703448,37.902069 22.4282759,38.4572414 Z" id="Shape"></path>
            </g>
        </g>
    </g>
</svg>