<?xml version="1.0" encoding="UTF-8"?>
<svg width="40px" height="37px" viewBox="0 0 40 37" version="1.1" xmlns="http://www.w3.org/2000/svg" xmlns:xlink="http://www.w3.org/1999/xlink">
    <!-- Generator: Sketch 53.2 (72643) - https://sketchapp.com -->
    <title>school</title>
    <desc>Created with Sketch.</desc>
    <g id="Page-1" stroke="none" stroke-width="1" fill="none" fill-rule="evenodd">
        <g id="Icon-v3" transform="translate(-336.000000, -115.000000)" fill="#000000" fill-rule="nonzero">
            <g id="school" transform="translate(336.000000, 115.000000)">
                <path d="M39.4129018,35.6096936 L38.1213176,35.6096936 L38.1213176,19.288584 L39.4129018,19.288584 C39.6271482,19.288584 39.8244084,19.1721497 39.9275785,18.9847303 C40.0306704,18.7973108 40.0232341,18.5687372 39.9082439,18.3884241 L35.5246854,11.5163779 C35.4168969,11.3473881 35.230126,11.2450883 35.0293433,11.2450883 L23.3742441,11.2450883 L20.5870837,8.46464282 L20.5870837,6.16922323 L26.2622264,6.16922323 C26.4787429,6.16922323 26.6777251,6.05036807 26.7798777,5.85990306 C26.8820302,5.66951615 26.8708365,5.43836551 26.75068,5.25867712 L25.7153775,3.70934308 L26.7507583,2.16000905 C26.8709148,1.98032066 26.8820302,1.74917001 26.779956,1.5587831 C26.6777251,1.36831809 26.4787429,1.24946293 26.2622264,1.24946293 L20.5870837,1.24946293 L20.5870837,0.58568575 C20.5870837,0.262231033 20.3242268,0 20,0 C19.6757732,0 19.4129163,0.262231033 19.4129163,0.58568575 L19.4129163,8.46464282 L16.6257559,11.2451664 L4.97065666,11.2451664 C4.76995231,11.2451664 4.58310313,11.3474662 4.47531455,11.516456 L0.0917560814,18.3885022 C-0.0232340507,18.5688153 -0.0306704446,18.7973889 0.0724214574,18.9848084 C0.175591637,19.1721497 0.372851768,19.288584 0.587098189,19.288584 L1.87868238,19.288584 L1.87868238,35.6096936 L0.587098189,35.6096936 C0.262871417,35.6096936 1.44647352e-05,35.8719246 1.44647352e-05,36.1953793 C1.44647352e-05,36.5188341 0.262871417,36.7810651 0.587098189,36.7810651 L39.4129018,36.7810651 C39.7371286,36.7810651 39.9999855,36.5188341 39.9999855,36.1953793 C39.9999855,35.8719246 39.7371286,35.6096936 39.4129018,35.6096936 Z M34.7070735,12.4165379 L38.3434701,18.1172125 L30.2626932,18.1172125 L24.5484116,12.4165379 L34.7070735,12.4165379 Z M25.1652409,2.42083443 L24.5212492,3.38448272 C24.3897424,3.58119504 24.3897424,3.83749112 24.5212492,4.03420344 L25.1652409,4.99785173 L20.5870837,4.99785173 L20.5870837,2.42083443 L25.1652409,2.42083443 Z M5.29292649,12.4165379 L15.4515101,12.4165379 L9.73722856,18.1172125 L1.65660818,18.1172125 L5.29292649,12.4165379 Z M3.05284983,19.288584 L9.98028122,19.288584 C9.99969412,19.288584 10.019107,19.2875688 10.0385199,19.2856166 C10.0468174,19.2848356 10.0549583,19.2832738 10.0631774,19.2821024 C10.0739015,19.2805406 10.0846256,19.2792911 10.0953496,19.2771827 C10.1048995,19.2753085 10.1141363,19.2726534 10.1235296,19.2703106 C10.1326882,19.268046 10.1419249,19.2659375 10.1510052,19.2632824 C10.160242,19.2604711 10.1692439,19.256957 10.1783241,19.2537552 C10.1873261,19.2505535 10.196328,19.247586 10.2052517,19.2439157 C10.213784,19.2404016 10.2219249,19.2362628 10.2302223,19.2323582 C10.2392243,19.2280632 10.2483828,19.2240805 10.2572282,19.2193169 C10.2652908,19.2150219 10.2728837,19.2101021 10.2807115,19.2054947 C10.2893221,19.2004188 10.2980892,19.195499 10.3064649,19.1898765 C10.3152321,19.1840196 10.3234512,19.177538 10.331827,19.1712126 C10.3387154,19.1660586 10.3458387,19.161295 10.3524923,19.1557505 C10.3675216,19.1434901 10.3819248,19.130527 10.3956234,19.1167829 L20,9.53543256 L29.6043766,19.116861 C29.6180752,19.130527 29.6325566,19.1434901 29.6475077,19.1558286 C29.6541613,19.161295 29.6612063,19.1660586 29.6680948,19.1712126 C29.6765488,19.177538 29.6848462,19.1840977 29.6936133,19.1899545 C29.7019108,19.195499 29.7105996,19.2003407 29.7191319,19.2054167 C29.727038,19.2101802 29.7347092,19.2151 29.7428501,19.219395 C29.7516172,19.2240805 29.7606192,19.2280632 29.7696211,19.2322801 C29.7779968,19.2362628 29.7862943,19.2404016 29.7949049,19.2439938 C29.803672,19.247586 29.8125956,19.2504754 29.821441,19.2536772 C29.8305995,19.256957 29.8396798,19.2604711 29.8490731,19.2633605 C29.8579968,19.2660937 29.867077,19.268046 29.876079,19.2703106 C29.8856289,19.2727315 29.8950222,19.2753866 29.9047286,19.2772608 C29.9150613,19.2792911 29.9254723,19.2805406 29.9358832,19.2820243 C29.9444155,19.2832738 29.9528695,19.2848356 29.9615584,19.2856946 C29.9808147,19.2875688 30.0001493,19.288584 30.0194839,19.288584 L36.9471502,19.288584 L36.9471502,35.6096936 L24.3444196,35.6096936 L24.3444196,27.4491388 C24.3444196,26.43723 23.5192147,25.6139901 22.5048906,25.6139901 L17.4951094,25.6139901 C16.4807853,25.6139901 15.6555804,26.43723 15.6555804,27.4491388 L15.6555804,35.6096936 L3.05284983,35.6096936 L3.05284983,19.288584 Z M23.1702521,35.5769231 L16.8297479,35.5769231 L16.8297479,27.9238232 C16.8297479,27.2960621 17.1282213,26.7853616 17.4951094,26.7853616 L22.5048906,26.7853616 C22.8717787,26.7853616 23.1702521,27.2960621 23.1702521,27.9238232 L23.1702521,35.5769231 Z" id="Shape"></path>
                <path d="M10.8851149,28.8118343 L7.75224775,28.8118343 C7.42783936,28.8118343 7.16483516,29.0732329 7.16483516,29.3956607 L7.16483516,33.1321499 C7.16483516,33.4545778 7.42783936,33.7159763 7.75224775,33.7159763 L10.8851149,33.7159763 C11.2095233,33.7159763 11.4725275,33.4545778 11.4725275,33.1321499 L11.4725275,29.3956607 C11.4725275,29.0732329 11.2095233,28.8118343 10.8851149,28.8118343 Z M10.2977023,29.9794872 L10.2977023,32.6544737 L8.33966034,32.6544737 L8.33966034,29.9794872 L10.2977023,29.9794872 Z" id="Shape"></path>
                <path d="M10.6893107,21.4556213 L7.94805195,21.4556213 C7.51618621,21.4556213 7.16483516,21.8042126 7.16483516,22.2326861 L7.16483516,26.3899825 C7.16483516,26.7118427 7.42783936,26.9727811 7.75224775,26.9727811 L10.8851149,26.9727811 C11.2095233,26.9727811 11.4725275,26.7118427 11.4725275,26.3899825 L11.4725275,22.2326861 C11.4725275,21.8042126 11.1211764,21.4556213 10.6893107,21.4556213 Z M10.2977023,22.6212184 L10.2977023,25.9016918 L8.33966034,25.9016918 L8.33966034,22.6212184 L10.2977023,22.6212184 Z" id="Shape"></path>
                <path d="M29.6863137,33.7159763 L32.8191808,33.7159763 C33.1435892,33.7159763 33.4065934,33.4545778 33.4065934,33.1321499 L33.4065934,29.3956607 C33.4065934,29.0732329 33.1435892,28.8118343 32.8191808,28.8118343 L29.6863137,28.8118343 C29.3619053,28.8118343 29.0989011,29.0732329 29.0989011,29.3956607 L29.0989011,33.1321499 C29.0989011,33.4545778 29.3619053,33.7159763 29.6863137,33.7159763 Z M32.2317682,29.9794872 L32.2317682,32.6544737 L30.2737263,32.6544737 L30.2737263,29.9794872 L32.2317682,29.9794872 Z" id="Shape"></path>
                <path d="M29.6863137,26.9727811 L32.8191808,26.9727811 C33.1435892,26.9727811 33.4065934,26.7118427 33.4065934,26.3899825 L33.4065934,22.2326861 C33.4065934,21.8042126 33.0552424,21.4556213 32.6233766,21.4556213 L29.8821179,21.4556213 C29.4502521,21.4556213 29.0989011,21.8042126 29.0989011,22.2326861 L29.0989011,26.3899825 C29.0989011,26.7118427 29.3619053,26.9727811 29.6863137,26.9727811 Z M32.2317682,22.6212184 L32.2317682,25.9016918 L30.2737263,25.9016918 L30.2737263,22.6212184 L32.2317682,22.6212184 Z" id="Shape"></path>
            </g>
        </g>
    </g>
</svg>