<?xml version="1.0" encoding="UTF-8"?>
<svg width="40px" height="39px" viewBox="0 0 40 39" version="1.1" xmlns="http://www.w3.org/2000/svg" xmlns:xlink="http://www.w3.org/1999/xlink">
    <!-- Generator: Sketch 53.2 (72643) - https://sketchapp.com -->
    <title>Icon</title>
    <desc>Created with Sketch.</desc>
    <g id="Page-1" stroke="none" stroke-width="1" fill="none" fill-rule="evenodd">
        <g id="Icon-Sprint3-6-Copy" transform="translate(-89.000000, -119.000000)" fill="#000000" fill-rule="nonzero">
            <g id="Icon" transform="translate(89.000000, 119.000000)">
                <g id="give-money" transform="translate(21.000000, 20.000000)">
                    <g id="Group">
                        <path d="M10.0130216,8.70498876 C8.88134747,8.25133708 8.55439803,7.97701124 8.55439803,7.4816236 C8.55439803,7.08518539 8.85466208,6.62203371 9.70122949,6.62203371 C10.4500216,6.62203371 11.0242913,6.9172809 11.0294149,6.9198427 C11.0898306,6.95207865 11.1576115,6.96926404 11.224752,6.96926404 C11.3886003,6.96926404 11.5335553,6.87010112 11.5936508,6.71660674 L11.7993419,6.19079775 C11.8709654,5.99919663 11.7623025,5.83225281 11.623752,5.77237079 C11.1627351,5.57169663 10.2617295,5.41638764 10.2525497,5.41478652 C10.2380329,5.41222472 10.1875441,5.40144382 10.1875441,5.34241573 L10.1846621,4.57964045 C10.1846621,4.34993258 9.99284747,4.16292135 9.75737556,4.16292135 L9.38836994,4.16292135 C9.15311152,4.16292135 8.96140365,4.34982584 8.96140365,4.57974719 L8.96236433,5.38169663 C8.96236433,5.44317978 8.89575758,5.46986517 8.87142051,5.47552247 C7.73408905,5.74643258 7.02329691,6.57955056 7.02329691,7.63042135 C7.02329691,8.94046067 8.10619017,9.53244944 9.27543736,9.97681461 C10.2101733,10.3437921 10.5914542,10.7158933 10.5914542,11.2616629 C10.5914542,11.855573 10.0514486,12.2703708 9.27778567,12.2703708 C8.61716208,12.2703708 7.72309466,11.8516236 7.71423511,11.8473539 C7.65702163,11.8202416 7.59639242,11.8065787 7.53405534,11.8065787 C7.36390927,11.8065787 7.21575197,11.9094775 7.15651039,12.0688427 L6.9601059,12.6006292 C6.89029691,12.7991685 6.99778567,12.9603483 7.13537556,13.0320787 C7.68445421,13.3180393 8.74695983,13.4856236 8.79424635,13.4929888 C8.8069486,13.4948034 8.87163399,13.5175393 8.87163399,13.5766742 L8.87163399,14.3751011 C8.87163399,14.604809 9.0634486,14.7918202 9.29902725,14.7918202 L9.68030815,14.7918202 C9.91599354,14.7918202 10.1078081,14.6049157 10.1078081,14.3751011 L10.1078081,13.5348315 C10.1078081,13.4562697 10.1657688,13.4493315 10.1777239,13.4464494 C11.3893475,13.1742584 12.1356846,12.2877697 12.1356846,11.1746685 C12.1353643,10.0313596 11.5004654,9.29260112 10.0130216,8.70498876 Z" id="Path"></path>
                        <path d="M9.50005063,0 C4.25314041,0 0,4.25337618 0,9.49989874 C0,14.7465226 4.25314041,19 9.50005063,19 C14.7467583,19 19,14.7465226 19,9.49989874 C19,4.25337618 14.7467583,0 9.50005063,0 Z M9.50016883,17.6123596 C5.01957155,17.6123596 1.38764045,13.9801412 1.38764045,9.49994372 C1.38764045,5.01974626 5.01957155,1.38764045 9.50016883,1.38764045 C13.980541,1.38764045 17.6123596,5.01974626 17.6123596,9.49994372 C17.6123596,13.9801412 13.980541,17.6123596 9.50016883,17.6123596 Z" id="Shape"></path>
                    </g>
                </g>
                <g id="router">
                    <path d="M31.2097611,16.4347826 L3.62901666,16.4347826 C1.62871286,16.4347826 0,18.1282398 0,20.2080594 L0,23.2267232 C0,25.3065428 1.62871286,27 3.62901666,27 C11.8181639,27 17.9600243,27 22.0545979,27 C22.8309955,27 23.2274057,26.0543071 23.2438287,24.1629213 C24.1326703,24.1629213 25.0191051,22.2484249 26.4992196,21.7173913 C28.3500457,21.0533543 30.7389126,21.6501842 30.7389126,20.4937139 C33.4721107,21.6661372 34.8387097,22.0899531 34.8387097,21.7651616 C34.8387097,21.4191389 34.8387097,20.9001048 34.8387097,20.2080594 C34.8387777,18.1282398 33.2100649,16.4347826 31.2097611,16.4347826 Z M27.9382022,20.75462 C26.3028788,21.4422692 25.3127254,22.0150276 24.9677419,22.4728952 C24.4912578,23.1052926 23.6954247,23.6286233 23.5022068,24.1629213 C23.2490702,24.8629103 23.0997859,25.4907034 22.3876404,25.4907034 C18.1046486,25.4907034 11.8517741,25.4907034 3.62901666,25.4907034 C2.42850777,25.4907034 1.45159306,24.4749546 1.45159306,23.2267232 L1.45159306,20.2080594 C1.45159306,18.959828 2.42850777,17.9440792 3.62901666,17.9440792 L31.209693,17.9440792 C32.4102019,17.9440792 33.3871166,18.959828 33.3871166,20.2080594 C33.3871166,20.7193412 33.3871166,21.1028026 33.3871166,21.3584435 C33.3871166,21.7736168 32.6613088,21.5723423 31.209693,20.75462 C29.8290384,20.75462 28.7385415,20.75462 27.9382022,20.75462 Z" id="Shape"></path>
                    <path d="M24.9677419,5.86956522 C24.6472358,5.86956522 24.3870968,6.19828316 24.3870968,6.60328236 L24.3870968,16.8749785 C24.3870968,17.2799777 24.6472358,17.6086957 24.9677419,17.6086957 C25.288248,17.6086957 25.5483871,17.281491 25.5483871,16.8749785 L25.5483871,6.60321358 C25.5483871,6.19821437 25.288248,5.86956522 24.9677419,5.86956522 Z" id="Path"></path>
                    <path d="M22.990874,3.55169871 C23.3041173,3.27657318 23.3041173,2.82929577 22.990874,2.55417024 C22.6776308,2.2790447 22.1683846,2.2790447 21.8551414,2.55417024 C19.0375335,5.03030006 19.0375335,9.05698714 21.8551414,11.533117 C22.0125913,11.6699522 22.2181572,11.7391304 22.4237983,11.7391304 C22.6294395,11.7391304 22.8350054,11.6700184 22.990874,11.533117 C23.3041173,11.2579914 23.3041173,10.810714 22.990874,10.5355885 C20.7997526,8.60977587 20.7997526,5.47757746 22.990874,3.55169871 Z" id="Path"></path>
                    <path d="M29.2416328,2.55416879 C28.9283896,2.27904519 28.4191434,2.27904519 28.1059002,2.55416879 C27.7926569,2.82929238 27.7926569,3.27656664 28.1059002,3.55169024 C30.2970216,5.47755542 30.2970216,8.60973177 28.1059002,10.535597 C27.7926569,10.8107206 27.7926569,11.2579948 28.1059002,11.5331184 C28.2633501,11.6699527 28.468916,11.7391304 28.6745571,11.7391304 C28.8801983,11.7391304 29.0841829,11.6700189 29.2416328,11.5331184 C32.0592407,9.05693989 32.0592407,5.03028117 29.2416328,2.55416879 Z" id="Path"></path>
                    <path d="M18.3956207,1.26735334 C18.64232,0.977720322 18.64232,0.50685779 18.3956207,0.217224767 C18.1489215,-0.0724082557 17.7478572,-0.0724082557 17.501158,0.217224767 C14.2953129,3.98099197 14.2953129,10.1063127 17.501158,13.8700799 C17.6251599,14.0141305 17.7870563,14.0869565 17.949012,14.0869565 C18.1109677,14.0869565 18.2728641,14.0142001 18.3956207,13.8700799 C18.64232,13.5804468 18.64232,13.1095843 18.3956207,12.8199513 C15.6819288,9.63551976 15.6819288,4.4533166 18.3956207,1.26735334 Z" id="Path"></path>
                    <path d="M33.5956162,0.217223693 C33.3489169,-0.0724078978 32.9478527,-0.0724078978 32.7011535,0.217223693 C32.4544542,0.506855285 32.4544542,0.97771549 32.7011535,1.26734708 C35.4148454,4.4518325 35.4148454,9.63401005 32.7011535,12.8199576 C32.4544542,13.1095891 32.4544542,13.5804494 32.7011535,13.8700809 C32.8251554,14.0141309 32.9870518,14.0869565 33.1490075,14.0869565 C33.3109632,14.0869565 33.4728596,14.0142005 33.5956162,13.8700809 C36.8014613,10.1062627 36.8014613,3.98090267 33.5956162,0.217223693 Z" id="Path"></path>
                </g>
            </g>
        </g>
    </g>
</svg>