<?xml version="1.0" encoding="UTF-8"?>
<svg width="41px" height="30px" viewBox="0 0 41 30" version="1.1" xmlns="http://www.w3.org/2000/svg" xmlns:xlink="http://www.w3.org/1999/xlink">
    <!-- Generator: Sketch 53.2 (72643) - https://sketchapp.com -->
    <title>router</title>
    <desc>Created with Sketch.</desc>
    <g id="Page-1" stroke="none" stroke-width="1" fill="none" fill-rule="evenodd">
        <g id="Icon-v3" transform="translate(-46.000000, -260.000000)" fill="#000000" fill-rule="nonzero">
            <g id="router" transform="translate(46.000000, 260.000000)">
                <path d="M35.8334294,18.3050847 L4.16664876,18.3050847 C1.87000365,18.3050847 0,20.1796168 0,22.4818234 L0,25.8232613 C0,28.125468 1.87000365,30 4.16664876,30 L35.8333512,30 C38.1299963,30 40,28.1271126 40,25.8232613 L40,22.4818234 C40.0000781,20.1796168 38.1300745,18.3050847 35.8334294,18.3050847 Z M38.3334342,25.8232613 C38.3334342,27.2049612 37.2117914,28.3293202 35.8334294,28.3293202 L4.16664876,28.3293202 C2.7882867,28.3293202 1.66664388,27.2049612 1.66664388,25.8232613 L1.66664388,22.4818234 C1.66664388,21.1001235 2.7882867,19.9757645 4.16664876,19.9757645 L35.8333512,19.9757645 C37.2117133,19.9757645 38.3333561,21.1001235 38.3333561,22.4818234 L38.3333561,25.8232613 L38.3334342,25.8232613 Z" id="Shape"></path>
                <path d="M28.974359,6.55260633 C28.5497569,6.55260633 28.2051282,6.92280092 28.2051282,7.37890173 L28.2051282,18.9466499 C28.2051282,19.4027507 28.5497569,19.7729453 28.974359,19.7729453 C29.3989611,19.7729453 29.7435897,19.4044549 29.7435897,18.9466499 L29.7435897,7.37882426 C29.7435897,6.92272346 29.3989611,6.55260633 28.974359,6.55260633 Z" id="Path"></path>
                <path d="M25.8861333,3.91118286 C26.2088958,3.59836357 26.2088958,3.08980664 25.8861333,2.77698735 C25.5633708,2.46416806 25.0386489,2.46416806 24.7158864,2.77698735 C21.8126532,5.59236095 21.8126532,10.1707269 24.7158864,12.9861005 C24.8781211,13.141683 25.089934,13.220339 25.3018245,13.220339 C25.513715,13.220339 25.7255279,13.1417582 25.8861333,12.9861005 C26.2088958,12.6732812 26.2088958,12.1647243 25.8861333,11.851905 C23.6284251,9.66224517 23.6284251,6.10091788 25.8861333,3.91118286 Z" id="Path"></path>
                <path d="M33.2328315,2.7769857 C32.910069,2.46416861 32.3853472,2.46416861 32.0625847,2.7769857 C31.7398222,3.08980278 31.7398222,3.59835613 32.0625847,3.91117322 C34.3202929,6.10089282 34.3202929,9.66219503 32.0625847,11.8519146 C31.7398222,12.1647317 31.7398222,12.6732851 32.0625847,12.9861022 C32.2248194,13.1416835 32.4366323,13.220339 32.6485228,13.220339 C32.8604133,13.220339 33.0705968,13.1417587 33.2328315,12.9861022 C36.1360647,10.1706732 36.1360647,5.59233947 33.2328315,2.7769857 Z" id="Path"></path>
                <path d="M21.8318052,1.41811509 C22.158629,1.09402792 22.158629,0.567152549 21.8318052,0.243065378 C21.5049814,-0.0810217927 20.973657,-0.0810217927 20.6468332,0.243065378 C16.3997735,4.45456258 16.3997735,11.3085388 20.6468332,15.520036 C20.8111093,15.6812226 21.0255874,15.7627119 21.2401441,15.7627119 C21.4547008,15.7627119 21.669179,15.6813005 21.8318052,15.520036 C22.158629,15.1959488 22.158629,14.6690735 21.8318052,14.3449863 C18.2367433,10.7817413 18.2367433,4.98307397 21.8318052,1.41811509 Z" id="Path"></path>
                <path d="M37.8147052,0.243064177 C37.4878814,-0.0810213923 36.956557,-0.0810213923 36.6297332,0.243064177 C36.3029094,0.567149746 36.3029094,1.09402251 36.6297332,1.41810808 C40.2247951,4.98141333 40.2247951,10.7800521 36.6297332,14.3449933 C36.3029094,14.6690789 36.3029094,15.1959516 36.6297332,15.5200372 C36.7940093,15.681223 37.0084875,15.7627119 37.2230442,15.7627119 C37.4376008,15.7627119 37.652079,15.6813009 37.8147052,15.5200372 C42.0617649,11.3084829 42.0617649,4.45446266 37.8147052,0.243064177 Z" id="Path"></path>
            </g>
        </g>
    </g>
</svg>