<?xml version="1.0" encoding="UTF-8"?>
<svg width="40px" height="40px" viewBox="0 0 40 40" version="1.1" xmlns="http://www.w3.org/2000/svg" xmlns:xlink="http://www.w3.org/1999/xlink">
    <!-- Generator: Sketch 53.2 (72643) - https://sketchapp.com -->
    <title>ServiceModel@2x</title>
    <desc>Created with Sketch.</desc>
    <g id="Page-1" stroke="none" stroke-width="1" fill="none" fill-rule="evenodd">
        <g id="Icon-Sprint3-Pt2" transform="translate(-476.000000, -256.000000)">
            <g id="ServiceModel" transform="translate(476.000000, 256.000000)">
                <g id="router" transform="translate(9.000000, 12.000000)" fill="#000000" fill-rule="nonzero">
                    <path d="M18.514263,9.53862872 L2.15280626,9.53862872 C0.966185488,9.53862872 0,10.5579016 0,11.8097217 L0,13.6266216 C0,14.8784416 0.966185488,15.8977145 2.15280626,15.8977145 L18.5142226,15.8977145 C19.7008434,15.8977145 20.6670289,14.8793359 20.6670289,13.6266216 L20.6670289,11.8097217 C20.6670693,10.5579016 19.7008838,9.53862872 18.514263,9.53862872 Z M19.8059548,13.6266216 C19.8059548,14.377918 19.2264292,14.9892859 18.514263,14.9892859 L2.15280626,14.9892859 C1.44064004,14.9892859 0.861114431,14.377918 0.861114431,13.6266216 L0.861114431,11.8097217 C0.861114431,11.0584252 1.44064004,10.4470574 2.15280626,10.4470574 L18.5142226,10.4470574 C19.2263889,10.4470574 19.8059145,11.0584252 19.8059145,11.8097217 L19.8059145,13.6266216 L19.8059548,13.6266216 Z" id="Shape"></path>
                    <path d="M15.5002717,3.17954291 C15.2808901,3.17954291 15.1028288,3.37986769 15.1028288,3.62667923 L15.1028288,9.88637813 C15.1028288,10.1331897 15.2808901,10.3335144 15.5002717,10.3335144 C15.7196533,10.3335144 15.8977145,10.1341119 15.8977145,9.88637813 L15.8977145,3.62663731 C15.8977145,3.37982577 15.7196533,3.17954291 15.5002717,3.17954291 Z" id="Path"></path>
                    <path d="M13.4058522,2.30304705 C13.5487924,2.14003949 13.5487924,1.87503467 13.4058522,1.71202712 C13.262912,1.54901957 13.0305312,1.54901957 12.887591,1.71202712 C11.6018509,3.17909508 11.6018509,5.56484383 12.887591,7.0319118 C12.959439,7.11298455 13.0532435,7.15397154 13.1470824,7.15397154 C13.2409212,7.15397154 13.3347257,7.11302373 13.4058522,7.0319118 C13.5487924,6.86890425 13.5487924,6.60389942 13.4058522,6.44089187 C12.4059925,5.29987819 12.4059925,3.44409991 13.4058522,2.30304705 Z" id="Path"></path>
                    <path d="M17.3180667,1.71202626 C17.1751265,1.54901985 16.9427456,1.54901985 16.7998054,1.71202626 C16.6568652,1.87503266 16.6568652,2.14003562 16.7998054,2.30304202 C17.7996651,3.44408685 17.7996651,5.29985206 16.7998054,6.44089689 C16.6568652,6.6039033 16.6568652,6.86890626 16.7998054,7.03191266 C16.8716535,7.11298483 16.965458,7.15397154 17.0592968,7.15397154 C17.1531357,7.15397154 17.2462186,7.11302402 17.3180667,7.03191266 C18.6038067,5.56481584 18.6038067,3.17908389 17.3180667,1.71202626 Z" id="Path"></path>
                    <path d="M11.7966395,0.786643439 C11.9655014,0.606868858 11.9655014,0.314605518 11.7966395,0.134830936 C11.6277775,-0.0449436454 11.3532551,-0.0449436454 11.1843932,0.134830936 C8.99004056,2.47099298 8.99004056,6.27296609 11.1843932,8.60912813 C11.2692707,8.69854006 11.3800863,8.74374299 11.4909425,8.74374299 C11.6017988,8.74374299 11.7126144,8.69858327 11.7966395,8.60912813 C11.9655014,8.42935355 11.9655014,8.13709021 11.7966395,7.95731563 C9.93915825,5.98074596 9.93915825,2.76416384 11.7966395,0.786643439 Z" id="Path"></path>
                    <path d="M19.8161502,0.13483027 C19.6472882,-0.0449434233 19.3727658,-0.0449434233 19.2039039,0.13483027 C19.035042,0.314603963 19.035042,0.606865858 19.2039039,0.786639552 C21.0613851,2.76324266 21.0613851,5.97980889 19.2039039,7.95731952 C19.035042,8.13709321 19.035042,8.42935511 19.2039039,8.6091288 C19.2887814,8.69854028 19.399597,8.74374299 19.5104532,8.74374299 C19.6213095,8.74374299 19.7321251,8.6985835 19.8161502,8.6091288 C22.0105028,6.27293509 22.0105028,2.47093755 19.8161502,0.13483027 Z" id="Path"></path>
                </g>
                <circle id="Oval" stroke="#000000" cx="20" cy="20" r="15.3990158"></circle>
                <path d="M38.8835712,19.9999735 L39.9595074,17.1528637 C40.0378667,16.9457543 40.0009136,16.7127074 39.8623982,16.5398167 L37.9593536,14.1645039 L38.1027909,11.1242691 C38.1132596,10.9031754 38.0060723,10.6927847 37.8210725,10.5713003 L35.2771693,8.90028446 L34.4742015,5.96450282 C34.415764,5.75090904 34.2488892,5.58403402 34.0353739,5.52567464 L31.0995961,4.72270578 L29.4285825,2.17887732 C29.3070201,1.99379917 29.0967079,1.8870804 28.8756144,1.89715853 L25.8353837,2.04059605 L23.460074,0.137548917 C23.2872617,-0.000888601313 23.0542151,-0.0378417313 22.8470279,0.0404395292 L19.9999219,1.11637717 L17.1529721,0.0405176542 C16.9457068,-0.0378417313 16.7127383,-0.000888601313 16.539926,0.137627042 L14.1646163,2.04067417 L11.1243856,1.89723665 C10.9021984,1.8867679 10.6929017,1.99395542 10.5714175,2.17895544 L8.900482,4.72286203 L5.96470425,5.52583089 C5.75111076,5.5842684 5.58423596,5.75114342 5.52587665,5.96465907 L4.72290886,8.90044071 L2.17900565,10.5713784 C1.99392774,10.692941 1.8868185,10.9032535 1.89728723,11.1243473 L2.04072456,14.164582 L0.137679959,16.5398949 C-0.00075737576,16.7127074 -0.0377104567,16.9457543 0.0405706999,17.1529418 L1.11642879,19.9999735 L0.040492575,22.8470051 C-0.0378667065,23.0541145 -0.000913625574,23.2871614 0.137601834,23.460052 L2.04064644,25.8353649 L1.89720911,28.8755996 C1.88674037,29.0966934 1.99392774,29.3070841 2.17892752,29.4285685 L4.72283074,31.0995843 L5.52579853,34.035366 C5.58423596,34.2489597 5.75111076,34.4158348 5.96462613,34.4741941 L8.90040387,35.277163 L10.5713394,37.8210696 C10.6929017,38.0061477 10.9036046,38.112554 11.1243075,38.1027884 L14.1645382,37.9593509 L16.5398479,39.862398 C16.7126602,40.0009136 16.9457849,40.0378668 17.152894,39.9595074 L20,38.8835697 L22.847106,39.9595074 C22.9189809,39.9866167 22.9939027,39.999898 23.0684338,39.999898 C23.2087462,39.999898 23.3472616,39.9527886 23.460074,39.862398 L25.8353837,37.9593509 L28.8756144,38.1027884 C29.097411,38.1126321 29.3070201,38.0060696 29.4285825,37.8210696 L31.0995961,35.277163 L34.0353739,34.4741941 C34.2489674,34.4157566 34.4158422,34.2488816 34.4742015,34.035366 L35.2771693,31.0995843 L37.8210725,29.4285685 C38.0061504,29.3070059 38.1132596,29.0966934 38.1027909,28.8755996 L37.9593536,25.8353649 L39.8623982,23.460052 C40.0008355,23.2872395 40.0377886,23.0541926 39.9595074,22.8470051 L38.8835712,19.9999735 Z M37.6281821,20.2213797 L38.6614621,22.955677 L36.833808,25.2368492 C36.7384175,25.3558335 36.6897457,25.5055992 36.6969332,25.657943 L36.8347455,28.577709 L34.3917016,30.1824748 C34.2642798,30.2661467 34.1716237,30.3935686 34.1313894,30.5407561 L33.3602184,33.3602096 L30.5407687,34.1313816 C30.3936595,34.171616 30.2663159,34.2641941 30.1824878,34.3916941 L28.5777241,36.8347413 L25.657962,36.6969288 C25.5055403,36.6898976 25.355853,36.7384132 25.2368687,36.8338038 L22.9556996,38.6614603 L20.221406,37.6281789 C20.1500779,37.6012258 20.0749999,37.5877883 20,37.5877883 C19.9250001,37.5877883 19.8499221,37.6013039 19.778594,37.6281789 L17.0443004,38.6614603 L14.7631313,36.8338038 C14.644147,36.7384132 14.4941472,36.6898976 14.342038,36.6969288 L11.4222759,36.8347413 L9.81751215,34.3916941 C9.73384038,34.2642722 9.60641866,34.171616 9.45923133,34.1313816 L6.63978157,33.3602096 L5.86861062,30.5407561 C5.82837629,30.3936467 5.73579828,30.2663029 5.60829843,30.1824748 L3.16525447,28.577709 L3.30306681,25.657943 C3.3102543,25.5055211 3.26158248,25.3558335 3.16619197,25.2368492 L1.3385379,22.955677 L2.37189604,20.2213797 C2.42580223,20.0787235 2.42580223,19.9212234 2.37189604,19.7785672 L1.3385379,17.0442699 L3.16619197,14.7630977 C3.26158248,14.6441134 3.3102543,14.4943477 3.30306681,14.3420039 L3.16525447,11.4222379 L5.60829843,9.81747209 C5.73572015,9.7338002 5.82837629,9.60637831 5.86861062,9.45919079 L6.63978157,6.63973729 L9.45923133,5.86856531 C9.60634053,5.82833093 9.73368413,5.73575279 9.81751215,5.60825277 L11.4222759,3.16520557 L14.342038,3.30301809 C14.4942253,3.31012747 14.644147,3.26153371 14.7631313,3.16614307 L17.0443004,1.33848658 L19.778594,2.37184609 C19.9213282,2.42575235 20.0787499,2.42575235 20.221406,2.37184609 L22.9556996,1.33848658 L25.2368687,3.16614307 C25.355853,3.26161184 25.5056966,3.31020559 25.657962,3.30301809 L28.5777241,3.16520557 L30.1824878,5.60825277 C30.2661596,5.73567467 30.3935813,5.82833093 30.5407687,5.86856531 L33.3602184,6.63973729 L34.1313894,9.45919079 C34.1716237,9.60630018 34.2642017,9.73364395 34.3917016,9.81747209 L36.8347455,11.4222379 L36.6969332,14.3420039 C36.6897457,14.4944258 36.7384175,14.6441134 36.833808,14.7630977 L38.6614621,17.0442699 L37.628104,19.7785672 C37.5742759,19.9213016 37.5742759,20.0787235 37.6281821,20.2213797 Z" id="Shape" fill="#000000" fill-rule="nonzero"></path>
            </g>
        </g>
    </g>
</svg>