<?xml version="1.0" encoding="UTF-8"?>
<svg width="40px" height="38px" viewBox="0 0 40 38" version="1.1" xmlns="http://www.w3.org/2000/svg" xmlns:xlink="http://www.w3.org/1999/xlink">
    <!-- Generator: Sketch 53.2 (72643) - https://sketchapp.com -->
    <title>Site Service</title>
    <desc>Created with Sketch.</desc>
    <g id="Page-1" stroke="none" stroke-width="1" fill="none" fill-rule="evenodd">
        <g id="Icon-v3" transform="translate(-437.000000, -121.000000)" fill="#000000" fill-rule="nonzero">
            <g id="Site-Service" transform="translate(437.000000, 121.000000)">
                <path d="M0.701544972,7.39365469 L4.96071301,6.49615001 C6.48447019,6.17697998 7.97582281,7.16705771 8.29460808,8.70945304 L12.6260902,29.794403 C10.7235871,30.4476209 9.5666147,32.3984513 9.89098609,34.4062021 C10.2153575,36.4139529 11.9259155,37.8896329 13.9347768,37.8947368 C14.2187014,37.8946155 14.5018616,37.8649365 14.7797927,37.8061679 C16.7651353,37.3876909 18.1520497,35.5648398 18.0455107,33.5139654 L37.4291642,29.4297368 C37.6331069,29.3884186 37.7995151,29.2395281 37.8651397,29.039656 C37.9307644,28.839784 37.8855284,28.6196227 37.746625,28.4628516 C37.6077217,28.3060805 37.396481,28.2367734 37.1931919,28.2812726 L17.8208736,32.3631551 C17.2241463,30.6299166 15.5757622,29.4980322 13.7649959,29.5781338 L9.42863216,8.47072735 C9.21383635,7.42479195 8.59752489,6.50812751 7.71530575,5.92242914 C6.83308661,5.33673077 5.75724228,5.12998624 4.72449247,5.34768588 L0.465572649,6.24519057 C0.261629958,6.28650877 0.0952217839,6.43539927 0.0295970937,6.63527128 C-0.0360275966,6.83514329 0.00920846105,7.05530466 0.148111797,7.21207573 C0.287015132,7.36884679 0.498255884,7.43815395 0.701544972,7.39365469 Z M13.6848194,30.5263158 C15.365407,30.5265542 16.7513445,31.8431325 16.8378528,33.5215555 C16.9243611,35.1999786 15.6811251,36.6520783 14.009468,36.8251092 C12.337811,36.9981401 10.8235299,35.8314671 10.5644508,34.1709067 C10.3053716,32.5103462 11.3922831,30.9378068 13.0371946,30.5933505 C13.2502052,30.5488912 13.4672188,30.5264285 13.6848194,30.5263158 L13.6848194,30.5263158 Z" id="Shape"></path>
                <g id="router" transform="translate(14.736842, 0.000000)">
                    <path d="M21.6886546,11.5789474 L2.52191899,11.5789474 C1.13184432,11.5789474 0,12.7600026 0,14.2105157 L0,16.3158 C0,17.7663132 1.13184432,18.9473684 2.52191899,18.9473684 L21.6886073,18.9473684 C23.078682,18.9473684 24.2105263,17.7673493 24.2105263,16.3158 L24.2105263,14.2105157 C24.2105736,12.7600026 23.0787293,11.5789474 21.6886546,11.5789474 Z M23.2018155,16.3158 C23.2018155,17.1863448 22.5229264,17.8947509 21.6886546,17.8947509 L2.52191899,17.8947509 C1.68764721,17.8947509 1.00875814,17.1863448 1.00875814,16.3158 L1.00875814,14.2105157 C1.00875814,13.339971 1.68764721,12.6315648 2.52191899,12.6315648 L21.6886073,12.6315648 C22.5228791,12.6315648 23.2017682,13.339971 23.2017682,14.2105157 L23.2017682,16.3158 L23.2018155,16.3158 Z" id="Shape"></path>
                    <path d="M17.3684211,4.21052632 C17.0779038,4.21052632 16.8421053,4.44633178 16.8421053,4.73685752 L16.8421053,12.1052477 C16.8421053,12.3957735 17.0779038,12.6315789 17.3684211,12.6315789 C17.6589383,12.6315789 17.8947368,12.396859 17.8947368,12.1052477 L17.8947368,4.73680818 C17.8947368,4.44628243 17.6589383,4.21052632 17.3684211,4.21052632 Z" id="Path"></path>
                    <path d="M15.6475067,2.9148851 C15.836796,2.72985915 15.836796,2.42905856 15.6475067,2.24403262 C15.4582174,2.05900667 15.1504858,2.05900667 14.9611965,2.24403262 C13.2585485,3.90926612 13.2585485,6.61727205 14.9611965,8.28250556 C15.0563417,8.37452928 15.1805628,8.42105263 15.3048294,8.42105263 C15.429096,8.42105263 15.5533171,8.37457376 15.6475067,8.28250556 C15.836796,8.09747961 15.836796,7.79667902 15.6475067,7.61165308 C14.3234373,6.31651594 14.3234373,4.21006672 15.6475067,2.9148851 Z" id="Path"></path>
                    <path d="M20.8282771,2.24403164 C20.6389878,2.059007 20.3312563,2.059007 20.141967,2.24403164 C19.9526777,2.42905628 19.9526777,2.72985476 20.141967,2.9148794 C21.4660364,4.21005189 21.4660364,6.31648628 20.141967,7.61165878 C19.9526777,7.79668342 19.9526777,8.09748189 20.141967,8.28250654 C20.2371121,8.37452961 20.3613332,8.42105263 20.4855998,8.42105263 C20.6098664,8.42105263 20.733132,8.37457409 20.8282771,8.28250654 C22.5309252,6.61724028 22.5309252,3.90925342 20.8282771,2.24403164 Z" id="Path"></path>
                    <path d="M13.5164983,0.852313653 C13.7401146,0.657531211 13.7401146,0.340869274 13.5164983,0.146086832 C13.292882,-0.0486956106 12.9293443,-0.0486956106 12.705728,0.146086832 C9.79984505,2.6772753 9.79984505,6.79664302 12.705728,9.32783149 C12.8181274,9.42470766 12.9648756,9.47368421 13.1116776,9.47368421 C13.2584795,9.47368421 13.4052277,9.42475449 13.5164983,9.32783149 C13.7401146,9.13304905 13.7401146,8.81638711 13.5164983,8.62160467 C11.0567191,6.48002791 11.0567191,2.99492052 13.5164983,0.852313653 Z" id="Path"></path>
                    <path d="M23.0837457,0.14608611 C22.8601294,-0.0486953699 22.4965917,-0.0486953699 22.2729754,0.14608611 C22.0493591,0.340867589 22.0493591,0.657527961 22.2729754,0.85230944 C24.7327546,2.99392244 24.7327546,6.47901261 22.2729754,8.62160888 C22.0493591,8.81639036 22.0493591,9.13305073 22.2729754,9.32783221 C22.3853748,9.42470791 22.532123,9.47368421 22.6789249,9.47368421 C22.8257269,9.47368421 22.9724751,9.42475473 23.0837457,9.32783221 C25.9896286,6.79660943 25.9896286,2.67721525 23.0837457,0.14608611 Z" id="Path"></path>
                </g>
            </g>
        </g>
    </g>
</svg>