<?xml version="1.0" encoding="UTF-8"?>
<svg width="40px" height="40px" viewBox="0 0 40 40" version="1.1" xmlns="http://www.w3.org/2000/svg" xmlns:xlink="http://www.w3.org/1999/xlink">
    <!-- Generator: Sketch 53.2 (72643) - https://sketchapp.com -->
    <title>building (1)</title>
    <desc>Created with Sketch.</desc>
    <g id="Page-1" stroke="none" stroke-width="1" fill="none" fill-rule="evenodd">
        <g id="Icon-v3" transform="translate(-196.000000, -256.000000)" fill="#000000" fill-rule="nonzero">
            <g id="building-(1)" transform="translate(196.000000, 256.000000)">
                <path d="M39.302619,35.9719048 L37.3042063,35.9719048 L37.3042063,0.666111111 C37.3042063,0.266428571 37.0377778,0 36.6380952,0 L3.33071429,0 C2.93103175,0 2.66460317,0.266428571 2.66460317,0.666111111 L2.66460317,35.9718254 L0.666111111,35.9718254 C0.266428571,35.9718254 0,36.238254 0,36.6379365 L0,39.3025397 C0,39.7022222 0.266428571,39.9686508 0.666111111,39.9686508 L39.302619,39.9686508 C39.7023016,39.9686508 39.9687302,39.7022222 39.9687302,39.3025397 L39.9687302,36.6379365 C39.9688095,36.2383333 39.7023016,35.9719048 39.302619,35.9719048 Z M3.99690476,1.33230159 L35.9719048,1.33230159 L35.9719048,35.9719048 L25.9796825,35.9719048 L25.9796825,28.6442857 C25.9796825,28.2446032 25.713254,27.9781746 25.3135714,27.9781746 L19.9843651,27.9781746 L14.6551587,27.9781746 C14.2554762,27.9781746 13.9890476,28.2446032 13.9890476,28.6442857 L13.9890476,35.9719048 L3.99690476,35.9719048 L3.99690476,1.33230159 Z M15.361746,29.3103968 L24.6474603,29.3103968 L24.6474603,35.9718254 L15.361746,35.9718254 L15.361746,29.3103968 Z M38.6365873,38.6365079 L1.33230159,38.6365079 L1.33230159,37.3042063 L3.33071429,37.3042063 L14.6552381,37.3042063 L19.9844444,37.3042063 L25.3136508,37.3042063 L36.6381746,37.3042063 L38.6365873,37.3042063 L38.6365873,38.6365079 L38.6365873,38.6365079 Z" id="Shape"></path>
                <path d="M16.3710317,3.33071429 L11.0419048,3.33071429 C10.6422222,3.33071429 10.3757937,3.59714286 10.3757937,3.9968254 L10.3757937,7.99373016 C10.3757937,8.3934127 10.6422222,8.65984127 11.0419048,8.65984127 L16.3711111,8.65984127 C16.7707937,8.65984127 17.0372222,8.3934127 17.0372222,7.99373016 L17.0372222,3.99690476 C17.0372222,3.59722222 16.7707143,3.33071429 16.3710317,3.33071429 Z M15.7049206,7.32761905 L11.7080159,7.32761905 L11.7080159,4.66301587 L15.7049206,4.66301587 L15.7049206,7.32761905 Z" id="Shape"></path>
                <path d="M16.3710317,10.6583333 L11.0419048,10.6583333 C10.6422222,10.6583333 10.3757937,10.9247619 10.3757937,11.3244444 L10.3757937,15.3213492 C10.3757937,15.7210317 10.6422222,15.9874603 11.0419048,15.9874603 L16.3711111,15.9874603 C16.7707937,15.9874603 17.0372222,15.7210317 17.0372222,15.3213492 L17.0372222,11.3244444 C17.0372222,10.9247619 16.7707143,10.6583333 16.3710317,10.6583333 Z M15.7049206,14.6552381 L11.7080159,14.6552381 L11.7080159,11.9906349 L15.7049206,11.9906349 L15.7049206,14.6552381 Z" id="Shape"></path>
                <path d="M23.5976984,15.9875397 L28.9269048,15.9875397 C29.3265873,15.9875397 29.5930159,15.7211111 29.5930159,15.3214286 L29.5930159,11.3245238 C29.5930159,10.9248413 29.3265873,10.6584127 28.9269048,10.6584127 L23.5976984,10.6584127 C23.1980159,10.6584127 22.9315873,10.9248413 22.9315873,11.3245238 L22.9315873,15.3214286 C22.9315873,15.7210317 23.1980159,15.9875397 23.5976984,15.9875397 Z M24.2638889,11.9906349 L28.2607937,11.9906349 L28.2607937,14.6552381 L24.2638889,14.6552381 L24.2638889,11.9906349 Z" id="Shape"></path>
                <path d="M23.5976984,23.3151587 L28.9269048,23.3151587 C29.3265873,23.3151587 29.5930159,23.0487302 29.5930159,22.6490476 L29.5930159,18.6521429 C29.5930159,18.2524603 29.3265873,17.9860317 28.9269048,17.9860317 L23.5976984,17.9860317 C23.1980159,17.9860317 22.9315873,18.2524603 22.9315873,18.6521429 L22.9315873,22.6490476 C22.9315873,23.0486508 23.1980159,23.3151587 23.5976984,23.3151587 Z M24.2638889,19.318254 L28.2607937,19.318254 L28.2607937,21.9828571 L24.2638889,21.9828571 L24.2638889,19.318254 Z" id="Shape"></path>
                <path d="M16.3710317,17.9859524 L11.0419048,17.9859524 C10.6422222,17.9859524 10.3757937,18.252381 10.3757937,18.6520635 L10.3757937,22.6489683 C10.3757937,23.0486508 10.6422222,23.3150794 11.0419048,23.3150794 L16.3711111,23.3150794 C16.7707937,23.3150794 17.0372222,23.0486508 17.0372222,22.6489683 L17.0372222,18.6520635 C17.0372222,18.252381 16.7707143,17.9859524 16.3710317,17.9859524 Z M15.7049206,21.9828571 L11.7080159,21.9828571 L11.7080159,19.318254 L15.7049206,19.318254 L15.7049206,21.9828571 Z" id="Shape"></path>
                <path d="M23.5976984,8.65992063 L28.9269048,8.65992063 C29.3265873,8.65992063 29.5930159,8.39349206 29.5930159,7.99380952 L29.5930159,3.99690476 C29.5930159,3.59722222 29.3265873,3.33079365 28.9269048,3.33079365 L23.5976984,3.33079365 C23.1980159,3.33079365 22.9315873,3.59722222 22.9315873,3.99690476 L22.9315873,7.99380952 C22.9315873,8.3934127 23.1980159,8.65992063 23.5976984,8.65992063 Z M24.2638889,4.66301587 L28.2607937,4.66301587 L28.2607937,7.32761905 L24.2638889,7.32761905 L24.2638889,4.66301587 Z" id="Shape"></path>
            </g>
        </g>
    </g>
</svg>